<svg width="856" height="560" viewBox="0 0 856 560" fill="none" xmlns="http://www.w3.org/2000/svg">
<rect x="240" y="137" width="384" height="384" rx="44" fill="#201E24"/>
<rect x="241" y="138" width="382" height="382" rx="43" stroke="#9F7DE5" stroke-opacity="0.5" stroke-width="2"/>
<path d="M643.312 54.7344H653.977C658.836 54.7344 662.359 55.4297 664.547 56.8203C666.75 58.1953 667.852 60.3906 667.852 63.4062C667.852 65.4531 667.367 67.1328 666.398 68.4453C665.445 69.7578 664.172 70.5469 662.578 70.8125V71.0469C664.75 71.5312 666.312 72.4375 667.266 73.7656C668.234 75.0938 668.719 76.8594 668.719 79.0625C668.719 82.1875 667.586 84.625 665.32 86.375C663.07 88.125 660.008 89 656.133 89H643.312V54.7344ZM650.578 68.3047H654.797C656.766 68.3047 658.188 68 659.062 67.3906C659.953 66.7812 660.398 65.7734 660.398 64.3672C660.398 63.0547 659.914 62.1172 658.945 61.5547C657.992 60.9766 656.477 60.6875 654.398 60.6875H650.578V68.3047ZM650.578 74.0703V83H655.312C657.312 83 658.789 82.6172 659.742 81.8516C660.695 81.0859 661.172 79.9141 661.172 78.3359C661.172 75.4922 659.141 74.0703 655.078 74.0703H650.578Z" fill="#2E8E72"/>
<path d="M698.289 344L695.805 335.844H683.312L680.828 344H673L685.094 309.594H693.977L706.117 344H698.289ZM694.07 329.75C691.773 322.359 690.477 318.18 690.18 317.211C689.898 316.242 689.695 315.477 689.57 314.914C689.055 316.914 687.578 321.859 685.141 329.75H694.07Z" fill="#C74D6A"/>
<path d="M735.391 309.734H746.055C750.914 309.734 754.438 310.43 756.625 311.82C758.828 313.195 759.93 315.391 759.93 318.406C759.93 320.453 759.445 322.133 758.477 323.445C757.523 324.758 756.25 325.547 754.656 325.812V326.047C756.828 326.531 758.391 327.438 759.344 328.766C760.312 330.094 760.797 331.859 760.797 334.062C760.797 337.188 759.664 339.625 757.398 341.375C755.148 343.125 752.086 344 748.211 344H735.391V309.734ZM742.656 323.305H746.875C748.844 323.305 750.266 323 751.141 322.391C752.031 321.781 752.477 320.773 752.477 319.367C752.477 318.055 751.992 317.117 751.023 316.555C750.07 315.977 748.555 315.688 746.477 315.688H742.656V323.305ZM742.656 329.07V338H747.391C749.391 338 750.867 337.617 751.82 336.852C752.773 336.086 753.25 334.914 753.25 333.336C753.25 330.492 751.219 329.07 747.156 329.07H742.656Z" fill="#2E8E72"/>
<path d="M174.289 132L171.805 123.844H159.312L156.828 132H149L161.094 97.5938H169.977L182.117 132H174.289ZM170.07 117.75C167.773 110.359 166.477 106.18 166.18 105.211C165.898 104.242 165.695 103.477 165.57 102.914C165.055 104.914 163.578 109.859 161.141 117.75H170.07Z" fill="#C74D6A"/>
<path d="M309.578 82H304.75V68.7812L304.797 66.6094L304.875 64.2344C304.073 65.0365 303.516 65.5625 303.203 65.8125L300.578 67.9219L298.25 65.0156L305.609 59.1562H309.578V82Z" fill="#2E8E72"/>
<path d="M163.328 204.078L157.703 195.531H163.109L166.5 201.094L169.922 195.531H175.328L169.641 204.078L175.594 213H170.172L166.5 207.016L162.812 213H157.406L163.328 204.078Z" fill="#C74D6A"/>
<path d="M268.75 204.234C268.75 201.474 269.151 198.891 269.953 196.484C270.766 194.078 271.932 191.969 273.453 190.156H277.359C275.891 192.167 274.781 194.375 274.031 196.781C273.281 199.188 272.906 201.661 272.906 204.203C272.906 206.755 273.286 209.224 274.047 211.609C274.818 213.984 275.911 216.135 277.328 218.062H273.453C271.922 216.292 270.755 214.224 269.953 211.859C269.151 209.495 268.75 206.953 268.75 204.234ZM303.984 209.641C303.443 211.745 302.526 214.24 301.234 217.125H297.797C298.474 214.354 299 211.74 299.375 209.281H303.75L303.984 209.641ZM342.25 204.234C342.25 206.974 341.844 209.526 341.031 211.891C340.229 214.255 339.068 216.312 337.547 218.062H333.672C335.078 216.146 336.167 214 336.938 211.625C337.708 209.24 338.094 206.766 338.094 204.203C338.094 201.661 337.719 199.188 336.969 196.781C336.219 194.375 335.109 192.167 333.641 190.156H337.547C339.078 191.979 340.245 194.099 341.047 196.516C341.849 198.922 342.25 201.495 342.25 204.234Z" fill="#CCCCCC"/>
<path d="M284.391 204.078L278.766 195.531H284.172L287.562 201.094L290.984 195.531H296.391L290.703 204.078L296.656 213H291.234L287.562 207.016L283.875 213H278.469L284.391 204.078Z" fill="#C74D6A"/>
<path d="M327.625 213H322.797V199.781L322.844 197.609L322.922 195.234C322.12 196.036 321.562 196.562 321.25 196.812L318.625 198.922L316.297 196.016L323.656 190.156H327.625V213Z" fill="#2E8E72"/>
<path d="M268.391 332.234C268.391 329.474 268.792 326.891 269.594 324.484C270.406 322.078 271.573 319.969 273.094 318.156H277C275.531 320.167 274.422 322.375 273.672 324.781C272.922 327.188 272.547 329.661 272.547 332.203C272.547 334.755 272.927 337.224 273.688 339.609C274.458 341.984 275.552 344.135 276.969 346.062H273.094C271.562 344.292 270.396 342.224 269.594 339.859C268.792 337.495 268.391 334.953 268.391 332.234ZM303.344 337.641C302.802 339.745 301.885 342.24 300.594 345.125H297.156C297.833 342.354 298.359 339.74 298.734 337.281H303.109L303.344 337.641ZM341.609 332.234C341.609 334.974 341.203 337.526 340.391 339.891C339.589 342.255 338.427 344.312 336.906 346.062H333.031C334.438 344.146 335.526 342 336.297 339.625C337.068 337.24 337.453 334.766 337.453 332.203C337.453 329.661 337.078 327.188 336.328 324.781C335.578 322.375 334.469 320.167 333 318.156H336.906C338.438 319.979 339.604 322.099 340.406 324.516C341.208 326.922 341.609 329.495 341.609 332.234Z" fill="#CCCCCC"/>
<path d="M277.953 323.531H283.172L286.469 333.359C286.75 334.214 286.943 335.224 287.047 336.391H287.141C287.255 335.318 287.479 334.307 287.812 333.359L291.047 323.531H296.156L288.766 343.234C288.089 345.057 287.12 346.422 285.859 347.328C284.609 348.234 283.146 348.688 281.469 348.688C280.646 348.688 279.839 348.599 279.047 348.422V344.641C279.62 344.776 280.245 344.844 280.922 344.844C281.766 344.844 282.5 344.583 283.125 344.062C283.76 343.552 284.255 342.776 284.609 341.734L284.891 340.875L277.953 323.531Z" fill="#C74D6A"/>
<path d="M326.984 341H322.156V327.781L322.203 325.609L322.281 323.234C321.479 324.036 320.922 324.562 320.609 324.812L317.984 326.922L315.656 324.016L323.016 318.156H326.984V341Z" fill="#2E8E72"/>
<path d="M269.688 460.234C269.688 457.474 270.089 454.891 270.891 452.484C271.703 450.078 272.87 447.969 274.391 446.156H278.297C276.828 448.167 275.719 450.375 274.969 452.781C274.219 455.188 273.844 457.661 273.844 460.203C273.844 462.755 274.224 465.224 274.984 467.609C275.755 469.984 276.849 472.135 278.266 474.062H274.391C272.859 472.292 271.693 470.224 270.891 467.859C270.089 465.495 269.688 462.953 269.688 460.234ZM302.047 465.641C301.505 467.745 300.589 470.24 299.297 473.125H295.859C296.536 470.354 297.062 467.74 297.438 465.281H301.812L302.047 465.641ZM340.312 460.234C340.312 462.974 339.906 465.526 339.094 467.891C338.292 470.255 337.13 472.312 335.609 474.062H331.734C333.141 472.146 334.229 470 335 467.625C335.771 465.24 336.156 462.766 336.156 460.203C336.156 457.661 335.781 455.188 335.031 452.781C334.281 450.375 333.172 448.167 331.703 446.156H335.609C337.141 447.979 338.307 450.099 339.109 452.516C339.911 454.922 340.312 457.495 340.312 460.234Z" fill="#CCCCCC"/>
<path d="M293.906 469H280.109V466.188L288.203 455.172H280.594V451.531H293.625V454.625L285.75 465.359H293.906V469Z" fill="#C74D6A"/>
<path d="M325.688 469H320.859V455.781L320.906 453.609L320.984 451.234C320.182 452.036 319.625 452.562 319.312 452.812L316.688 454.922L314.359 452.016L321.719 446.156H325.688V469Z" fill="#2E8E72"/>
<path d="M394.75 204.234C394.75 201.474 395.151 198.891 395.953 196.484C396.766 194.078 397.932 191.969 399.453 190.156H403.359C401.891 192.167 400.781 194.375 400.031 196.781C399.281 199.188 398.906 201.661 398.906 204.203C398.906 206.755 399.286 209.224 400.047 211.609C400.818 213.984 401.911 216.135 403.328 218.062H399.453C397.922 216.292 396.755 214.224 395.953 211.859C395.151 209.495 394.75 206.953 394.75 204.234ZM429.984 209.641C429.443 211.745 428.526 214.24 427.234 217.125H423.797C424.474 214.354 425 211.74 425.375 209.281H429.75L429.984 209.641ZM468.25 204.234C468.25 206.974 467.844 209.526 467.031 211.891C466.229 214.255 465.068 216.312 463.547 218.062H459.672C461.078 216.146 462.167 214 462.938 211.625C463.708 209.24 464.094 206.766 464.094 204.203C464.094 201.661 463.719 199.188 462.969 196.781C462.219 194.375 461.109 192.167 459.641 190.156H463.547C465.078 191.979 466.245 194.099 467.047 196.516C467.849 198.922 468.25 201.495 468.25 204.234Z" fill="#CCCCCC"/>
<path d="M410.391 204.078L404.766 195.531H410.172L413.562 201.094L416.984 195.531H422.391L416.703 204.078L422.656 213H417.234L413.562 207.016L409.875 213H404.469L410.391 204.078Z" fill="#C74D6A"/>
<path d="M457.656 213H441.688V209.641L447.422 203.844C449.12 202.104 450.229 200.901 450.75 200.234C451.271 199.557 451.646 198.932 451.875 198.359C452.104 197.786 452.219 197.193 452.219 196.578C452.219 195.661 451.964 194.979 451.453 194.531C450.953 194.083 450.281 193.859 449.438 193.859C448.552 193.859 447.693 194.062 446.859 194.469C446.026 194.875 445.156 195.453 444.25 196.203L441.625 193.094C442.75 192.135 443.682 191.458 444.422 191.062C445.161 190.667 445.969 190.365 446.844 190.156C447.719 189.938 448.698 189.828 449.781 189.828C451.208 189.828 452.469 190.089 453.562 190.609C454.656 191.13 455.505 191.859 456.109 192.797C456.714 193.734 457.016 194.807 457.016 196.016C457.016 197.068 456.828 198.057 456.453 198.984C456.089 199.901 455.516 200.844 454.734 201.812C453.964 202.781 452.599 204.161 450.641 205.953L447.703 208.719V208.938H457.656V213Z" fill="#2E8E72"/>
<path d="M394.391 332.234C394.391 329.474 394.792 326.891 395.594 324.484C396.406 322.078 397.573 319.969 399.094 318.156H403C401.531 320.167 400.422 322.375 399.672 324.781C398.922 327.188 398.547 329.661 398.547 332.203C398.547 334.755 398.927 337.224 399.688 339.609C400.458 341.984 401.552 344.135 402.969 346.062H399.094C397.562 344.292 396.396 342.224 395.594 339.859C394.792 337.495 394.391 334.953 394.391 332.234ZM429.344 337.641C428.802 339.745 427.885 342.24 426.594 345.125H423.156C423.833 342.354 424.359 339.74 424.734 337.281H429.109L429.344 337.641ZM467.609 332.234C467.609 334.974 467.203 337.526 466.391 339.891C465.589 342.255 464.427 344.312 462.906 346.062H459.031C460.438 344.146 461.526 342 462.297 339.625C463.068 337.24 463.453 334.766 463.453 332.203C463.453 329.661 463.078 327.188 462.328 324.781C461.578 322.375 460.469 320.167 459 318.156H462.906C464.438 319.979 465.604 322.099 466.406 324.516C467.208 326.922 467.609 329.495 467.609 332.234Z" fill="#CCCCCC"/>
<path d="M403.953 323.531H409.172L412.469 333.359C412.75 334.214 412.943 335.224 413.047 336.391H413.141C413.255 335.318 413.479 334.307 413.812 333.359L417.047 323.531H422.156L414.766 343.234C414.089 345.057 413.12 346.422 411.859 347.328C410.609 348.234 409.146 348.688 407.469 348.688C406.646 348.688 405.839 348.599 405.047 348.422V344.641C405.62 344.776 406.245 344.844 406.922 344.844C407.766 344.844 408.5 344.583 409.125 344.062C409.76 343.552 410.255 342.776 410.609 341.734L410.891 340.875L403.953 323.531Z" fill="#C74D6A"/>
<path d="M457.016 341H441.047V337.641L446.781 331.844C448.479 330.104 449.589 328.901 450.109 328.234C450.63 327.557 451.005 326.932 451.234 326.359C451.464 325.786 451.578 325.193 451.578 324.578C451.578 323.661 451.323 322.979 450.812 322.531C450.312 322.083 449.641 321.859 448.797 321.859C447.911 321.859 447.052 322.062 446.219 322.469C445.385 322.875 444.516 323.453 443.609 324.203L440.984 321.094C442.109 320.135 443.042 319.458 443.781 319.062C444.521 318.667 445.328 318.365 446.203 318.156C447.078 317.938 448.057 317.828 449.141 317.828C450.568 317.828 451.828 318.089 452.922 318.609C454.016 319.13 454.865 319.859 455.469 320.797C456.073 321.734 456.375 322.807 456.375 324.016C456.375 325.068 456.188 326.057 455.812 326.984C455.448 327.901 454.875 328.844 454.094 329.812C453.323 330.781 451.958 332.161 450 333.953L447.062 336.719V336.938H457.016V341Z" fill="#2E8E72"/>
<path d="M395.688 460.234C395.688 457.474 396.089 454.891 396.891 452.484C397.703 450.078 398.87 447.969 400.391 446.156H404.297C402.828 448.167 401.719 450.375 400.969 452.781C400.219 455.188 399.844 457.661 399.844 460.203C399.844 462.755 400.224 465.224 400.984 467.609C401.755 469.984 402.849 472.135 404.266 474.062H400.391C398.859 472.292 397.693 470.224 396.891 467.859C396.089 465.495 395.688 462.953 395.688 460.234ZM428.047 465.641C427.505 467.745 426.589 470.24 425.297 473.125H421.859C422.536 470.354 423.062 467.74 423.438 465.281H427.812L428.047 465.641ZM466.312 460.234C466.312 462.974 465.906 465.526 465.094 467.891C464.292 470.255 463.13 472.312 461.609 474.062H457.734C459.141 472.146 460.229 470 461 467.625C461.771 465.24 462.156 462.766 462.156 460.203C462.156 457.661 461.781 455.188 461.031 452.781C460.281 450.375 459.172 448.167 457.703 446.156H461.609C463.141 447.979 464.307 450.099 465.109 452.516C465.911 454.922 466.312 457.495 466.312 460.234Z" fill="#CCCCCC"/>
<path d="M419.906 469H406.109V466.188L414.203 455.172H406.594V451.531H419.625V454.625L411.75 465.359H419.906V469Z" fill="#C74D6A"/>
<path d="M455.719 469H439.75V465.641L445.484 459.844C447.182 458.104 448.292 456.901 448.812 456.234C449.333 455.557 449.708 454.932 449.938 454.359C450.167 453.786 450.281 453.193 450.281 452.578C450.281 451.661 450.026 450.979 449.516 450.531C449.016 450.083 448.344 449.859 447.5 449.859C446.615 449.859 445.755 450.062 444.922 450.469C444.089 450.875 443.219 451.453 442.312 452.203L439.688 449.094C440.812 448.135 441.745 447.458 442.484 447.062C443.224 446.667 444.031 446.365 444.906 446.156C445.781 445.938 446.76 445.828 447.844 445.828C449.271 445.828 450.531 446.089 451.625 446.609C452.719 447.13 453.568 447.859 454.172 448.797C454.776 449.734 455.078 450.807 455.078 452.016C455.078 453.068 454.891 454.057 454.516 454.984C454.151 455.901 453.578 456.844 452.797 457.812C452.026 458.781 450.661 460.161 448.703 461.953L445.766 464.719V464.938H455.719V469Z" fill="#2E8E72"/>
<path d="M520.75 204.234C520.75 201.474 521.151 198.891 521.953 196.484C522.766 194.078 523.932 191.969 525.453 190.156H529.359C527.891 192.167 526.781 194.375 526.031 196.781C525.281 199.188 524.906 201.661 524.906 204.203C524.906 206.755 525.286 209.224 526.047 211.609C526.818 213.984 527.911 216.135 529.328 218.062H525.453C523.922 216.292 522.755 214.224 521.953 211.859C521.151 209.495 520.75 206.953 520.75 204.234ZM555.984 209.641C555.443 211.745 554.526 214.24 553.234 217.125H549.797C550.474 214.354 551 211.74 551.375 209.281H555.75L555.984 209.641ZM594.25 204.234C594.25 206.974 593.844 209.526 593.031 211.891C592.229 214.255 591.068 216.312 589.547 218.062H585.672C587.078 216.146 588.167 214 588.938 211.625C589.708 209.24 590.094 206.766 590.094 204.203C590.094 201.661 589.719 199.188 588.969 196.781C588.219 194.375 587.109 192.167 585.641 190.156H589.547C591.078 191.979 592.245 194.099 593.047 196.516C593.849 198.922 594.25 201.495 594.25 204.234Z" fill="#CCCCCC"/>
<path d="M536.391 204.078L530.766 195.531H536.172L539.562 201.094L542.984 195.531H548.391L542.703 204.078L548.656 213H543.234L539.562 207.016L535.875 213H530.469L536.391 204.078Z" fill="#C74D6A"/>
<path d="M582.766 195.266C582.766 196.693 582.333 197.906 581.469 198.906C580.604 199.906 579.391 200.594 577.828 200.969V201.062C579.672 201.292 581.068 201.854 582.016 202.75C582.964 203.635 583.438 204.833 583.438 206.344C583.438 208.542 582.641 210.255 581.047 211.484C579.453 212.703 577.177 213.312 574.219 213.312C571.74 213.312 569.542 212.901 567.625 212.078V207.969C568.51 208.417 569.484 208.781 570.547 209.062C571.609 209.344 572.661 209.484 573.703 209.484C575.297 209.484 576.474 209.214 577.234 208.672C577.995 208.13 578.375 207.26 578.375 206.062C578.375 204.99 577.938 204.229 577.062 203.781C576.188 203.333 574.792 203.109 572.875 203.109H571.141V199.406H572.906C574.677 199.406 575.969 199.177 576.781 198.719C577.604 198.25 578.016 197.453 578.016 196.328C578.016 194.599 576.932 193.734 574.766 193.734C574.016 193.734 573.25 193.859 572.469 194.109C571.698 194.359 570.839 194.792 569.891 195.406L567.656 192.078C569.74 190.578 572.224 189.828 575.109 189.828C577.474 189.828 579.339 190.307 580.703 191.266C582.078 192.224 582.766 193.557 582.766 195.266Z" fill="#2E8E72"/>
<path d="M520.391 332.234C520.391 329.474 520.792 326.891 521.594 324.484C522.406 322.078 523.573 319.969 525.094 318.156H529C527.531 320.167 526.422 322.375 525.672 324.781C524.922 327.188 524.547 329.661 524.547 332.203C524.547 334.755 524.927 337.224 525.688 339.609C526.458 341.984 527.552 344.135 528.969 346.062H525.094C523.562 344.292 522.396 342.224 521.594 339.859C520.792 337.495 520.391 334.953 520.391 332.234ZM555.344 337.641C554.802 339.745 553.885 342.24 552.594 345.125H549.156C549.833 342.354 550.359 339.74 550.734 337.281H555.109L555.344 337.641ZM593.609 332.234C593.609 334.974 593.203 337.526 592.391 339.891C591.589 342.255 590.427 344.312 588.906 346.062H585.031C586.438 344.146 587.526 342 588.297 339.625C589.068 337.24 589.453 334.766 589.453 332.203C589.453 329.661 589.078 327.188 588.328 324.781C587.578 322.375 586.469 320.167 585 318.156H588.906C590.438 319.979 591.604 322.099 592.406 324.516C593.208 326.922 593.609 329.495 593.609 332.234Z" fill="#CCCCCC"/>
<path d="M529.953 323.531H535.172L538.469 333.359C538.75 334.214 538.943 335.224 539.047 336.391H539.141C539.255 335.318 539.479 334.307 539.812 333.359L543.047 323.531H548.156L540.766 343.234C540.089 345.057 539.12 346.422 537.859 347.328C536.609 348.234 535.146 348.688 533.469 348.688C532.646 348.688 531.839 348.599 531.047 348.422V344.641C531.62 344.776 532.245 344.844 532.922 344.844C533.766 344.844 534.5 344.583 535.125 344.062C535.76 343.552 536.255 342.776 536.609 341.734L536.891 340.875L529.953 323.531Z" fill="#C74D6A"/>
<path d="M582.125 323.266C582.125 324.693 581.693 325.906 580.828 326.906C579.964 327.906 578.75 328.594 577.188 328.969V329.062C579.031 329.292 580.427 329.854 581.375 330.75C582.323 331.635 582.797 332.833 582.797 334.344C582.797 336.542 582 338.255 580.406 339.484C578.812 340.703 576.536 341.312 573.578 341.312C571.099 341.312 568.901 340.901 566.984 340.078V335.969C567.87 336.417 568.844 336.781 569.906 337.062C570.969 337.344 572.021 337.484 573.062 337.484C574.656 337.484 575.833 337.214 576.594 336.672C577.354 336.13 577.734 335.26 577.734 334.062C577.734 332.99 577.297 332.229 576.422 331.781C575.547 331.333 574.151 331.109 572.234 331.109H570.5V327.406H572.266C574.036 327.406 575.328 327.177 576.141 326.719C576.964 326.25 577.375 325.453 577.375 324.328C577.375 322.599 576.292 321.734 574.125 321.734C573.375 321.734 572.609 321.859 571.828 322.109C571.057 322.359 570.198 322.792 569.25 323.406L567.016 320.078C569.099 318.578 571.583 317.828 574.469 317.828C576.833 317.828 578.698 318.307 580.062 319.266C581.438 320.224 582.125 321.557 582.125 323.266Z" fill="#2E8E72"/>
<path d="M521.688 460.234C521.688 457.474 522.089 454.891 522.891 452.484C523.703 450.078 524.87 447.969 526.391 446.156H530.297C528.828 448.167 527.719 450.375 526.969 452.781C526.219 455.188 525.844 457.661 525.844 460.203C525.844 462.755 526.224 465.224 526.984 467.609C527.755 469.984 528.849 472.135 530.266 474.062H526.391C524.859 472.292 523.693 470.224 522.891 467.859C522.089 465.495 521.688 462.953 521.688 460.234ZM554.047 465.641C553.505 467.745 552.589 470.24 551.297 473.125H547.859C548.536 470.354 549.062 467.74 549.438 465.281H553.812L554.047 465.641ZM592.312 460.234C592.312 462.974 591.906 465.526 591.094 467.891C590.292 470.255 589.13 472.312 587.609 474.062H583.734C585.141 472.146 586.229 470 587 467.625C587.771 465.24 588.156 462.766 588.156 460.203C588.156 457.661 587.781 455.188 587.031 452.781C586.281 450.375 585.172 448.167 583.703 446.156H587.609C589.141 447.979 590.307 450.099 591.109 452.516C591.911 454.922 592.312 457.495 592.312 460.234Z" fill="#CCCCCC"/>
<path d="M545.906 469H532.109V466.188L540.203 455.172H532.594V451.531H545.625V454.625L537.75 465.359H545.906V469Z" fill="#C74D6A"/>
<path d="M580.828 451.266C580.828 452.693 580.396 453.906 579.531 454.906C578.667 455.906 577.453 456.594 575.891 456.969V457.062C577.734 457.292 579.13 457.854 580.078 458.75C581.026 459.635 581.5 460.833 581.5 462.344C581.5 464.542 580.703 466.255 579.109 467.484C577.516 468.703 575.24 469.312 572.281 469.312C569.802 469.312 567.604 468.901 565.688 468.078V463.969C566.573 464.417 567.547 464.781 568.609 465.062C569.672 465.344 570.724 465.484 571.766 465.484C573.359 465.484 574.536 465.214 575.297 464.672C576.057 464.13 576.438 463.26 576.438 462.062C576.438 460.99 576 460.229 575.125 459.781C574.25 459.333 572.854 459.109 570.938 459.109H569.203V455.406H570.969C572.74 455.406 574.031 455.177 574.844 454.719C575.667 454.25 576.078 453.453 576.078 452.328C576.078 450.599 574.995 449.734 572.828 449.734C572.078 449.734 571.312 449.859 570.531 450.109C569.76 450.359 568.901 450.792 567.953 451.406L565.719 448.078C567.802 446.578 570.286 445.828 573.172 445.828C575.536 445.828 577.401 446.307 578.766 447.266C580.141 448.224 580.828 449.557 580.828 451.266Z" fill="#2E8E72"/>
<path d="M157.391 323.531H162.609L165.906 333.359C166.188 334.214 166.38 335.224 166.484 336.391H166.578C166.693 335.318 166.917 334.307 167.25 333.359L170.484 323.531H175.594L168.203 343.234C167.526 345.057 166.557 346.422 165.297 347.328C164.047 348.234 162.583 348.688 160.906 348.688C160.083 348.688 159.276 348.599 158.484 348.422V344.641C159.057 344.776 159.682 344.844 160.359 344.844C161.203 344.844 161.938 344.583 162.562 344.062C163.198 343.552 163.693 342.776 164.047 341.734L164.328 340.875L157.391 323.531Z" fill="#C74D6A"/>
<path d="M172.844 465H159.047V462.188L167.141 451.172H159.531V447.531H172.562V450.625L164.688 461.359H172.844V465Z" fill="#C74D6A"/>
<path d="M439.609 82H423.641V78.6406L429.375 72.8438C431.073 71.1042 432.182 69.901 432.703 69.2344C433.224 68.5573 433.599 67.9323 433.828 67.3594C434.057 66.7865 434.172 66.1927 434.172 65.5781C434.172 64.6615 433.917 63.9792 433.406 63.5312C432.906 63.0833 432.234 62.8594 431.391 62.8594C430.505 62.8594 429.646 63.0625 428.812 63.4688C427.979 63.875 427.109 64.4531 426.203 65.2031L423.578 62.0938C424.703 61.1354 425.635 60.4583 426.375 60.0625C427.115 59.6667 427.922 59.3646 428.797 59.1562C429.672 58.9375 430.651 58.8281 431.734 58.8281C433.161 58.8281 434.422 59.0885 435.516 59.6094C436.609 60.1302 437.458 60.8594 438.062 61.7969C438.667 62.7344 438.969 63.8073 438.969 65.0156C438.969 66.0677 438.781 67.0573 438.406 67.9844C438.042 68.901 437.469 69.8438 436.688 70.8125C435.917 71.7812 434.552 73.1615 432.594 74.9531L429.656 77.7188V77.9375H439.609V82Z" fill="#2E8E72"/>
<path d="M566.719 64.2656C566.719 65.6927 566.286 66.9062 565.422 67.9062C564.557 68.9062 563.344 69.5938 561.781 69.9688V70.0625C563.625 70.2917 565.021 70.8542 565.969 71.75C566.917 72.6354 567.391 73.8333 567.391 75.3438C567.391 77.5417 566.594 79.2552 565 80.4844C563.406 81.7031 561.13 82.3125 558.172 82.3125C555.693 82.3125 553.495 81.901 551.578 81.0781V76.9688C552.464 77.4167 553.438 77.7812 554.5 78.0625C555.562 78.3438 556.615 78.4844 557.656 78.4844C559.25 78.4844 560.427 78.2135 561.188 77.6719C561.948 77.1302 562.328 76.2604 562.328 75.0625C562.328 73.9896 561.891 73.2292 561.016 72.7812C560.141 72.3333 558.745 72.1094 556.828 72.1094H555.094V68.4062H556.859C558.63 68.4062 559.922 68.1771 560.734 67.7188C561.557 67.25 561.969 66.4531 561.969 65.3281C561.969 63.599 560.885 62.7344 558.719 62.7344C557.969 62.7344 557.203 62.8594 556.422 63.1094C555.651 63.3594 554.792 63.7917 553.844 64.4062L551.609 61.0781C553.693 59.5781 556.177 58.8281 559.062 58.8281C561.427 58.8281 563.292 59.3073 564.656 60.2656C566.031 61.224 566.719 62.5573 566.719 64.2656Z" fill="#2E8E72"/>
<rect x="264" y="38" width="341" height="64" rx="32" fill="#5CC09C" fill-opacity="0.1"/>
<rect x="265" y="39" width="339" height="62" rx="31" stroke="#2E8E72" stroke-opacity="0.5" stroke-width="2"/>
<rect x="135" y="169" width="64" height="320" rx="32" fill="#E72525" fill-opacity="0.07"/>
<rect x="136" y="170" width="62" height="318" rx="31" stroke="#C74D6A" stroke-opacity="0.5" stroke-width="2"/>
<line x1="369" y1="138" x2="369" y2="520" stroke="#525252" stroke-width="2" stroke-linecap="round" stroke-dasharray="3 3"/>
<line x1="497" y1="138" x2="497" y2="520" stroke="#525252" stroke-width="2" stroke-linecap="round" stroke-dasharray="3 3"/>
<line x1="241" y1="264" x2="623" y2="264" stroke="#525252" stroke-width="2" stroke-linecap="round" stroke-dasharray="3 3"/>
<line x1="241" y1="392" x2="623" y2="392" stroke="#525252" stroke-width="2" stroke-linecap="round" stroke-dasharray="3 3"/>
<path fill-rule="evenodd" clip-rule="evenodd" d="M712.689 336.539C712.074 337.154 711.077 337.154 710.461 336.538C709.846 335.923 709.846 334.926 710.461 334.311L716.773 328L710.461 321.689C709.846 321.074 709.846 320.077 710.461 319.461C711.076 318.846 712.074 318.846 712.689 319.461L719 325.772L725.311 319.461C725.926 318.846 726.924 318.846 727.539 319.461C728.154 320.077 728.154 321.074 727.539 321.689L721.227 328L727.539 334.311C728.154 334.926 728.154 335.923 727.539 336.538C726.923 337.154 725.926 337.154 725.311 336.539L719 330.228L712.689 336.539Z" fill="#CCCCCC"/>
<line x1="632.5" y1="69.5" x2="615.5" y2="69.5" stroke="#CCCCCC" stroke-linecap="round"/>
<line x1="653.5" y1="329.5" x2="636.5" y2="329.5" stroke="#CCCCCC" stroke-linecap="round"/>
<line x1="165.5" y1="157.5" x2="165.5" y2="140.5" stroke="#CCCCCC" stroke-linecap="round"/>
</svg>
