<svg width="856" height="560" viewBox="0 0 856 560" fill="none" xmlns="http://www.w3.org/2000/svg">
<path d="M644.312 54.7344H654.977C659.836 54.7344 663.359 55.4297 665.547 56.8203C667.75 58.1953 668.852 60.3906 668.852 63.4062C668.852 65.4531 668.367 67.1328 667.398 68.4453C666.445 69.7578 665.172 70.5469 663.578 70.8125V71.0469C665.75 71.5312 667.312 72.4375 668.266 73.7656C669.234 75.0938 669.719 76.8594 669.719 79.0625C669.719 82.1875 668.586 84.625 666.32 86.375C664.07 88.125 661.008 89 657.133 89H644.312V54.7344ZM651.578 68.3047H655.797C657.766 68.3047 659.188 68 660.062 67.3906C660.953 66.7812 661.398 65.7734 661.398 64.3672C661.398 63.0547 660.914 62.1172 659.945 61.5547C658.992 60.9766 657.477 60.6875 655.398 60.6875H651.578V68.3047ZM651.578 74.0703V83H656.312C658.312 83 659.789 82.6172 660.742 81.8516C661.695 81.0859 662.172 79.9141 662.172 78.3359C662.172 75.4922 660.141 74.0703 656.078 74.0703H651.578Z" fill="#48BA90"/>
<path d="M699.289 344L696.805 335.844H684.312L681.828 344H674L686.094 309.594H694.977L707.117 344H699.289ZM695.07 329.75C692.773 322.359 691.477 318.18 691.18 317.211C690.898 316.242 690.695 315.477 690.57 314.914C690.055 316.914 688.578 321.859 686.141 329.75H695.07Z" fill="#EB4E4E"/>
<path d="M736.391 309.734H747.055C751.914 309.734 755.438 310.43 757.625 311.82C759.828 313.195 760.93 315.391 760.93 318.406C760.93 320.453 760.445 322.133 759.477 323.445C758.523 324.758 757.25 325.547 755.656 325.812V326.047C757.828 326.531 759.391 327.438 760.344 328.766C761.312 330.094 761.797 331.859 761.797 334.062C761.797 337.188 760.664 339.625 758.398 341.375C756.148 343.125 753.086 344 749.211 344H736.391V309.734ZM743.656 323.305H747.875C749.844 323.305 751.266 323 752.141 322.391C753.031 321.781 753.477 320.773 753.477 319.367C753.477 318.055 752.992 317.117 752.023 316.555C751.07 315.977 749.555 315.688 747.477 315.688H743.656V323.305ZM743.656 329.07V338H748.391C750.391 338 751.867 337.617 752.82 336.852C753.773 336.086 754.25 334.914 754.25 333.336C754.25 330.492 752.219 329.07 748.156 329.07H743.656Z" fill="#48BA90"/>
<path d="M175.289 132L172.805 123.844H160.312L157.828 132H150L162.094 97.5938H170.977L183.117 132H175.289ZM171.07 117.75C168.773 110.359 167.477 106.18 167.18 105.211C166.898 104.242 166.695 103.477 166.57 102.914C166.055 104.914 164.578 109.859 162.141 117.75H171.07Z" fill="#EB4E4E"/>
<path d="M310.578 82H305.75V68.7812L305.797 66.6094L305.875 64.2344C305.073 65.0365 304.516 65.5625 304.203 65.8125L301.578 67.9219L299.25 65.0156L306.609 59.1562H310.578V82Z" fill="#46B98F"/>
<path d="M164.328 204.078L158.703 195.531H164.109L167.5 201.094L170.922 195.531H176.328L170.641 204.078L176.594 213H171.172L167.5 207.016L163.812 213H158.406L164.328 204.078Z" fill="#EB4E4E"/>
<path d="M269.75 204.234C269.75 201.474 270.151 198.891 270.953 196.484C271.766 194.078 272.932 191.969 274.453 190.156H278.359C276.891 192.167 275.781 194.375 275.031 196.781C274.281 199.188 273.906 201.661 273.906 204.203C273.906 206.755 274.286 209.224 275.047 211.609C275.818 213.984 276.911 216.135 278.328 218.062H274.453C272.922 216.292 271.755 214.224 270.953 211.859C270.151 209.495 269.75 206.953 269.75 204.234ZM304.984 209.641C304.443 211.745 303.526 214.24 302.234 217.125H298.797C299.474 214.354 300 211.74 300.375 209.281H304.75L304.984 209.641ZM343.25 204.234C343.25 206.974 342.844 209.526 342.031 211.891C341.229 214.255 340.068 216.312 338.547 218.062H334.672C336.078 216.146 337.167 214 337.938 211.625C338.708 209.24 339.094 206.766 339.094 204.203C339.094 201.661 338.719 199.188 337.969 196.781C337.219 194.375 336.109 192.167 334.641 190.156H338.547C340.078 191.979 341.245 194.099 342.047 196.516C342.849 198.922 343.25 201.495 343.25 204.234Z" fill="#4D4D4D"/>
<path d="M285.391 204.078L279.766 195.531H285.172L288.562 201.094L291.984 195.531H297.391L291.703 204.078L297.656 213H292.234L288.562 207.016L284.875 213H279.469L285.391 204.078Z" fill="#EB4E4E"/>
<path d="M328.625 213H323.797V199.781L323.844 197.609L323.922 195.234C323.12 196.036 322.562 196.562 322.25 196.812L319.625 198.922L317.297 196.016L324.656 190.156H328.625V213Z" fill="#46B98F"/>
<path d="M269.391 332.234C269.391 329.474 269.792 326.891 270.594 324.484C271.406 322.078 272.573 319.969 274.094 318.156H278C276.531 320.167 275.422 322.375 274.672 324.781C273.922 327.188 273.547 329.661 273.547 332.203C273.547 334.755 273.927 337.224 274.688 339.609C275.458 341.984 276.552 344.135 277.969 346.062H274.094C272.562 344.292 271.396 342.224 270.594 339.859C269.792 337.495 269.391 334.953 269.391 332.234ZM304.344 337.641C303.802 339.745 302.885 342.24 301.594 345.125H298.156C298.833 342.354 299.359 339.74 299.734 337.281H304.109L304.344 337.641ZM342.609 332.234C342.609 334.974 342.203 337.526 341.391 339.891C340.589 342.255 339.427 344.312 337.906 346.062H334.031C335.438 344.146 336.526 342 337.297 339.625C338.068 337.24 338.453 334.766 338.453 332.203C338.453 329.661 338.078 327.188 337.328 324.781C336.578 322.375 335.469 320.167 334 318.156H337.906C339.438 319.979 340.604 322.099 341.406 324.516C342.208 326.922 342.609 329.495 342.609 332.234Z" fill="#4D4D4D"/>
<path d="M278.953 323.531H284.172L287.469 333.359C287.75 334.214 287.943 335.224 288.047 336.391H288.141C288.255 335.318 288.479 334.307 288.812 333.359L292.047 323.531H297.156L289.766 343.234C289.089 345.057 288.12 346.422 286.859 347.328C285.609 348.234 284.146 348.688 282.469 348.688C281.646 348.688 280.839 348.599 280.047 348.422V344.641C280.62 344.776 281.245 344.844 281.922 344.844C282.766 344.844 283.5 344.583 284.125 344.062C284.76 343.552 285.255 342.776 285.609 341.734L285.891 340.875L278.953 323.531Z" fill="#EB4E4E"/>
<path d="M327.984 341H323.156V327.781L323.203 325.609L323.281 323.234C322.479 324.036 321.922 324.562 321.609 324.812L318.984 326.922L316.656 324.016L324.016 318.156H327.984V341Z" fill="#46B98F"/>
<path d="M270.688 460.234C270.688 457.474 271.089 454.891 271.891 452.484C272.703 450.078 273.87 447.969 275.391 446.156H279.297C277.828 448.167 276.719 450.375 275.969 452.781C275.219 455.188 274.844 457.661 274.844 460.203C274.844 462.755 275.224 465.224 275.984 467.609C276.755 469.984 277.849 472.135 279.266 474.062H275.391C273.859 472.292 272.693 470.224 271.891 467.859C271.089 465.495 270.688 462.953 270.688 460.234ZM303.047 465.641C302.505 467.745 301.589 470.24 300.297 473.125H296.859C297.536 470.354 298.062 467.74 298.438 465.281H302.812L303.047 465.641ZM341.312 460.234C341.312 462.974 340.906 465.526 340.094 467.891C339.292 470.255 338.13 472.312 336.609 474.062H332.734C334.141 472.146 335.229 470 336 467.625C336.771 465.24 337.156 462.766 337.156 460.203C337.156 457.661 336.781 455.188 336.031 452.781C335.281 450.375 334.172 448.167 332.703 446.156H336.609C338.141 447.979 339.307 450.099 340.109 452.516C340.911 454.922 341.312 457.495 341.312 460.234Z" fill="#4D4D4D"/>
<path d="M294.906 469H281.109V466.188L289.203 455.172H281.594V451.531H294.625V454.625L286.75 465.359H294.906V469Z" fill="#EB4E4E"/>
<path d="M326.688 469H321.859V455.781L321.906 453.609L321.984 451.234C321.182 452.036 320.625 452.562 320.312 452.812L317.688 454.922L315.359 452.016L322.719 446.156H326.688V469Z" fill="#46B98F"/>
<path d="M395.75 204.234C395.75 201.474 396.151 198.891 396.953 196.484C397.766 194.078 398.932 191.969 400.453 190.156H404.359C402.891 192.167 401.781 194.375 401.031 196.781C400.281 199.188 399.906 201.661 399.906 204.203C399.906 206.755 400.286 209.224 401.047 211.609C401.818 213.984 402.911 216.135 404.328 218.062H400.453C398.922 216.292 397.755 214.224 396.953 211.859C396.151 209.495 395.75 206.953 395.75 204.234ZM430.984 209.641C430.443 211.745 429.526 214.24 428.234 217.125H424.797C425.474 214.354 426 211.74 426.375 209.281H430.75L430.984 209.641ZM469.25 204.234C469.25 206.974 468.844 209.526 468.031 211.891C467.229 214.255 466.068 216.312 464.547 218.062H460.672C462.078 216.146 463.167 214 463.938 211.625C464.708 209.24 465.094 206.766 465.094 204.203C465.094 201.661 464.719 199.188 463.969 196.781C463.219 194.375 462.109 192.167 460.641 190.156H464.547C466.078 191.979 467.245 194.099 468.047 196.516C468.849 198.922 469.25 201.495 469.25 204.234Z" fill="#4D4D4D"/>
<path d="M411.391 204.078L405.766 195.531H411.172L414.562 201.094L417.984 195.531H423.391L417.703 204.078L423.656 213H418.234L414.562 207.016L410.875 213H405.469L411.391 204.078Z" fill="#EB4E4E"/>
<path d="M458.656 213H442.688V209.641L448.422 203.844C450.12 202.104 451.229 200.901 451.75 200.234C452.271 199.557 452.646 198.932 452.875 198.359C453.104 197.786 453.219 197.193 453.219 196.578C453.219 195.661 452.964 194.979 452.453 194.531C451.953 194.083 451.281 193.859 450.438 193.859C449.552 193.859 448.693 194.062 447.859 194.469C447.026 194.875 446.156 195.453 445.25 196.203L442.625 193.094C443.75 192.135 444.682 191.458 445.422 191.062C446.161 190.667 446.969 190.365 447.844 190.156C448.719 189.938 449.698 189.828 450.781 189.828C452.208 189.828 453.469 190.089 454.562 190.609C455.656 191.13 456.505 191.859 457.109 192.797C457.714 193.734 458.016 194.807 458.016 196.016C458.016 197.068 457.828 198.057 457.453 198.984C457.089 199.901 456.516 200.844 455.734 201.812C454.964 202.781 453.599 204.161 451.641 205.953L448.703 208.719V208.938H458.656V213Z" fill="#46B98F"/>
<path d="M395.391 332.234C395.391 329.474 395.792 326.891 396.594 324.484C397.406 322.078 398.573 319.969 400.094 318.156H404C402.531 320.167 401.422 322.375 400.672 324.781C399.922 327.188 399.547 329.661 399.547 332.203C399.547 334.755 399.927 337.224 400.688 339.609C401.458 341.984 402.552 344.135 403.969 346.062H400.094C398.562 344.292 397.396 342.224 396.594 339.859C395.792 337.495 395.391 334.953 395.391 332.234ZM430.344 337.641C429.802 339.745 428.885 342.24 427.594 345.125H424.156C424.833 342.354 425.359 339.74 425.734 337.281H430.109L430.344 337.641ZM468.609 332.234C468.609 334.974 468.203 337.526 467.391 339.891C466.589 342.255 465.427 344.312 463.906 346.062H460.031C461.438 344.146 462.526 342 463.297 339.625C464.068 337.24 464.453 334.766 464.453 332.203C464.453 329.661 464.078 327.188 463.328 324.781C462.578 322.375 461.469 320.167 460 318.156H463.906C465.438 319.979 466.604 322.099 467.406 324.516C468.208 326.922 468.609 329.495 468.609 332.234Z" fill="#4D4D4D"/>
<path d="M404.953 323.531H410.172L413.469 333.359C413.75 334.214 413.943 335.224 414.047 336.391H414.141C414.255 335.318 414.479 334.307 414.812 333.359L418.047 323.531H423.156L415.766 343.234C415.089 345.057 414.12 346.422 412.859 347.328C411.609 348.234 410.146 348.688 408.469 348.688C407.646 348.688 406.839 348.599 406.047 348.422V344.641C406.62 344.776 407.245 344.844 407.922 344.844C408.766 344.844 409.5 344.583 410.125 344.062C410.76 343.552 411.255 342.776 411.609 341.734L411.891 340.875L404.953 323.531Z" fill="#EB4E4E"/>
<path d="M458.016 341H442.047V337.641L447.781 331.844C449.479 330.104 450.589 328.901 451.109 328.234C451.63 327.557 452.005 326.932 452.234 326.359C452.464 325.786 452.578 325.193 452.578 324.578C452.578 323.661 452.323 322.979 451.812 322.531C451.312 322.083 450.641 321.859 449.797 321.859C448.911 321.859 448.052 322.062 447.219 322.469C446.385 322.875 445.516 323.453 444.609 324.203L441.984 321.094C443.109 320.135 444.042 319.458 444.781 319.062C445.521 318.667 446.328 318.365 447.203 318.156C448.078 317.938 449.057 317.828 450.141 317.828C451.568 317.828 452.828 318.089 453.922 318.609C455.016 319.13 455.865 319.859 456.469 320.797C457.073 321.734 457.375 322.807 457.375 324.016C457.375 325.068 457.188 326.057 456.812 326.984C456.448 327.901 455.875 328.844 455.094 329.812C454.323 330.781 452.958 332.161 451 333.953L448.062 336.719V336.938H458.016V341Z" fill="#46B98F"/>
<path d="M396.688 460.234C396.688 457.474 397.089 454.891 397.891 452.484C398.703 450.078 399.87 447.969 401.391 446.156H405.297C403.828 448.167 402.719 450.375 401.969 452.781C401.219 455.188 400.844 457.661 400.844 460.203C400.844 462.755 401.224 465.224 401.984 467.609C402.755 469.984 403.849 472.135 405.266 474.062H401.391C399.859 472.292 398.693 470.224 397.891 467.859C397.089 465.495 396.688 462.953 396.688 460.234ZM429.047 465.641C428.505 467.745 427.589 470.24 426.297 473.125H422.859C423.536 470.354 424.062 467.74 424.438 465.281H428.812L429.047 465.641ZM467.312 460.234C467.312 462.974 466.906 465.526 466.094 467.891C465.292 470.255 464.13 472.312 462.609 474.062H458.734C460.141 472.146 461.229 470 462 467.625C462.771 465.24 463.156 462.766 463.156 460.203C463.156 457.661 462.781 455.188 462.031 452.781C461.281 450.375 460.172 448.167 458.703 446.156H462.609C464.141 447.979 465.307 450.099 466.109 452.516C466.911 454.922 467.312 457.495 467.312 460.234Z" fill="#4D4D4D"/>
<path d="M420.906 469H407.109V466.188L415.203 455.172H407.594V451.531H420.625V454.625L412.75 465.359H420.906V469Z" fill="#EB4E4E"/>
<path d="M456.719 469H440.75V465.641L446.484 459.844C448.182 458.104 449.292 456.901 449.812 456.234C450.333 455.557 450.708 454.932 450.938 454.359C451.167 453.786 451.281 453.193 451.281 452.578C451.281 451.661 451.026 450.979 450.516 450.531C450.016 450.083 449.344 449.859 448.5 449.859C447.615 449.859 446.755 450.062 445.922 450.469C445.089 450.875 444.219 451.453 443.312 452.203L440.688 449.094C441.812 448.135 442.745 447.458 443.484 447.062C444.224 446.667 445.031 446.365 445.906 446.156C446.781 445.938 447.76 445.828 448.844 445.828C450.271 445.828 451.531 446.089 452.625 446.609C453.719 447.13 454.568 447.859 455.172 448.797C455.776 449.734 456.078 450.807 456.078 452.016C456.078 453.068 455.891 454.057 455.516 454.984C455.151 455.901 454.578 456.844 453.797 457.812C453.026 458.781 451.661 460.161 449.703 461.953L446.766 464.719V464.938H456.719V469Z" fill="#46B98F"/>
<path d="M521.75 204.234C521.75 201.474 522.151 198.891 522.953 196.484C523.766 194.078 524.932 191.969 526.453 190.156H530.359C528.891 192.167 527.781 194.375 527.031 196.781C526.281 199.188 525.906 201.661 525.906 204.203C525.906 206.755 526.286 209.224 527.047 211.609C527.818 213.984 528.911 216.135 530.328 218.062H526.453C524.922 216.292 523.755 214.224 522.953 211.859C522.151 209.495 521.75 206.953 521.75 204.234ZM556.984 209.641C556.443 211.745 555.526 214.24 554.234 217.125H550.797C551.474 214.354 552 211.74 552.375 209.281H556.75L556.984 209.641ZM595.25 204.234C595.25 206.974 594.844 209.526 594.031 211.891C593.229 214.255 592.068 216.312 590.547 218.062H586.672C588.078 216.146 589.167 214 589.938 211.625C590.708 209.24 591.094 206.766 591.094 204.203C591.094 201.661 590.719 199.188 589.969 196.781C589.219 194.375 588.109 192.167 586.641 190.156H590.547C592.078 191.979 593.245 194.099 594.047 196.516C594.849 198.922 595.25 201.495 595.25 204.234Z" fill="#4D4D4D"/>
<path d="M537.391 204.078L531.766 195.531H537.172L540.562 201.094L543.984 195.531H549.391L543.703 204.078L549.656 213H544.234L540.562 207.016L536.875 213H531.469L537.391 204.078Z" fill="#EB4E4E"/>
<path d="M583.766 195.266C583.766 196.693 583.333 197.906 582.469 198.906C581.604 199.906 580.391 200.594 578.828 200.969V201.062C580.672 201.292 582.068 201.854 583.016 202.75C583.964 203.635 584.438 204.833 584.438 206.344C584.438 208.542 583.641 210.255 582.047 211.484C580.453 212.703 578.177 213.312 575.219 213.312C572.74 213.312 570.542 212.901 568.625 212.078V207.969C569.51 208.417 570.484 208.781 571.547 209.062C572.609 209.344 573.661 209.484 574.703 209.484C576.297 209.484 577.474 209.214 578.234 208.672C578.995 208.13 579.375 207.26 579.375 206.062C579.375 204.99 578.938 204.229 578.062 203.781C577.188 203.333 575.792 203.109 573.875 203.109H572.141V199.406H573.906C575.677 199.406 576.969 199.177 577.781 198.719C578.604 198.25 579.016 197.453 579.016 196.328C579.016 194.599 577.932 193.734 575.766 193.734C575.016 193.734 574.25 193.859 573.469 194.109C572.698 194.359 571.839 194.792 570.891 195.406L568.656 192.078C570.74 190.578 573.224 189.828 576.109 189.828C578.474 189.828 580.339 190.307 581.703 191.266C583.078 192.224 583.766 193.557 583.766 195.266Z" fill="#46B98F"/>
<path d="M521.391 332.234C521.391 329.474 521.792 326.891 522.594 324.484C523.406 322.078 524.573 319.969 526.094 318.156H530C528.531 320.167 527.422 322.375 526.672 324.781C525.922 327.188 525.547 329.661 525.547 332.203C525.547 334.755 525.927 337.224 526.688 339.609C527.458 341.984 528.552 344.135 529.969 346.062H526.094C524.562 344.292 523.396 342.224 522.594 339.859C521.792 337.495 521.391 334.953 521.391 332.234ZM556.344 337.641C555.802 339.745 554.885 342.24 553.594 345.125H550.156C550.833 342.354 551.359 339.74 551.734 337.281H556.109L556.344 337.641ZM594.609 332.234C594.609 334.974 594.203 337.526 593.391 339.891C592.589 342.255 591.427 344.312 589.906 346.062H586.031C587.438 344.146 588.526 342 589.297 339.625C590.068 337.24 590.453 334.766 590.453 332.203C590.453 329.661 590.078 327.188 589.328 324.781C588.578 322.375 587.469 320.167 586 318.156H589.906C591.438 319.979 592.604 322.099 593.406 324.516C594.208 326.922 594.609 329.495 594.609 332.234Z" fill="#4D4D4D"/>
<path d="M530.953 323.531H536.172L539.469 333.359C539.75 334.214 539.943 335.224 540.047 336.391H540.141C540.255 335.318 540.479 334.307 540.812 333.359L544.047 323.531H549.156L541.766 343.234C541.089 345.057 540.12 346.422 538.859 347.328C537.609 348.234 536.146 348.688 534.469 348.688C533.646 348.688 532.839 348.599 532.047 348.422V344.641C532.62 344.776 533.245 344.844 533.922 344.844C534.766 344.844 535.5 344.583 536.125 344.062C536.76 343.552 537.255 342.776 537.609 341.734L537.891 340.875L530.953 323.531Z" fill="#EB4E4E"/>
<path d="M583.125 323.266C583.125 324.693 582.693 325.906 581.828 326.906C580.964 327.906 579.75 328.594 578.188 328.969V329.062C580.031 329.292 581.427 329.854 582.375 330.75C583.323 331.635 583.797 332.833 583.797 334.344C583.797 336.542 583 338.255 581.406 339.484C579.812 340.703 577.536 341.312 574.578 341.312C572.099 341.312 569.901 340.901 567.984 340.078V335.969C568.87 336.417 569.844 336.781 570.906 337.062C571.969 337.344 573.021 337.484 574.062 337.484C575.656 337.484 576.833 337.214 577.594 336.672C578.354 336.13 578.734 335.26 578.734 334.062C578.734 332.99 578.297 332.229 577.422 331.781C576.547 331.333 575.151 331.109 573.234 331.109H571.5V327.406H573.266C575.036 327.406 576.328 327.177 577.141 326.719C577.964 326.25 578.375 325.453 578.375 324.328C578.375 322.599 577.292 321.734 575.125 321.734C574.375 321.734 573.609 321.859 572.828 322.109C572.057 322.359 571.198 322.792 570.25 323.406L568.016 320.078C570.099 318.578 572.583 317.828 575.469 317.828C577.833 317.828 579.698 318.307 581.062 319.266C582.438 320.224 583.125 321.557 583.125 323.266Z" fill="#46B98F"/>
<path d="M522.688 460.234C522.688 457.474 523.089 454.891 523.891 452.484C524.703 450.078 525.87 447.969 527.391 446.156H531.297C529.828 448.167 528.719 450.375 527.969 452.781C527.219 455.188 526.844 457.661 526.844 460.203C526.844 462.755 527.224 465.224 527.984 467.609C528.755 469.984 529.849 472.135 531.266 474.062H527.391C525.859 472.292 524.693 470.224 523.891 467.859C523.089 465.495 522.688 462.953 522.688 460.234ZM555.047 465.641C554.505 467.745 553.589 470.24 552.297 473.125H548.859C549.536 470.354 550.062 467.74 550.438 465.281H554.812L555.047 465.641ZM593.312 460.234C593.312 462.974 592.906 465.526 592.094 467.891C591.292 470.255 590.13 472.312 588.609 474.062H584.734C586.141 472.146 587.229 470 588 467.625C588.771 465.24 589.156 462.766 589.156 460.203C589.156 457.661 588.781 455.188 588.031 452.781C587.281 450.375 586.172 448.167 584.703 446.156H588.609C590.141 447.979 591.307 450.099 592.109 452.516C592.911 454.922 593.312 457.495 593.312 460.234Z" fill="#4D4D4D"/>
<path d="M546.906 469H533.109V466.188L541.203 455.172H533.594V451.531H546.625V454.625L538.75 465.359H546.906V469Z" fill="#EB4E4E"/>
<path d="M581.828 451.266C581.828 452.693 581.396 453.906 580.531 454.906C579.667 455.906 578.453 456.594 576.891 456.969V457.062C578.734 457.292 580.13 457.854 581.078 458.75C582.026 459.635 582.5 460.833 582.5 462.344C582.5 464.542 581.703 466.255 580.109 467.484C578.516 468.703 576.24 469.312 573.281 469.312C570.802 469.312 568.604 468.901 566.688 468.078V463.969C567.573 464.417 568.547 464.781 569.609 465.062C570.672 465.344 571.724 465.484 572.766 465.484C574.359 465.484 575.536 465.214 576.297 464.672C577.057 464.13 577.438 463.26 577.438 462.062C577.438 460.99 577 460.229 576.125 459.781C575.25 459.333 573.854 459.109 571.938 459.109H570.203V455.406H571.969C573.74 455.406 575.031 455.177 575.844 454.719C576.667 454.25 577.078 453.453 577.078 452.328C577.078 450.599 575.995 449.734 573.828 449.734C573.078 449.734 572.312 449.859 571.531 450.109C570.76 450.359 569.901 450.792 568.953 451.406L566.719 448.078C568.802 446.578 571.286 445.828 574.172 445.828C576.536 445.828 578.401 446.307 579.766 447.266C581.141 448.224 581.828 449.557 581.828 451.266Z" fill="#46B98F"/>
<path d="M158.391 323.531H163.609L166.906 333.359C167.188 334.214 167.38 335.224 167.484 336.391H167.578C167.693 335.318 167.917 334.307 168.25 333.359L171.484 323.531H176.594L169.203 343.234C168.526 345.057 167.557 346.422 166.297 347.328C165.047 348.234 163.583 348.688 161.906 348.688C161.083 348.688 160.276 348.599 159.484 348.422V344.641C160.057 344.776 160.682 344.844 161.359 344.844C162.203 344.844 162.938 344.583 163.562 344.062C164.198 343.552 164.693 342.776 165.047 341.734L165.328 340.875L158.391 323.531Z" fill="#EB4E4E"/>
<path d="M173.844 465H160.047V462.188L168.141 451.172H160.531V447.531H173.562V450.625L165.688 461.359H173.844V465Z" fill="#EB4E4E"/>
<path d="M440.609 82H424.641V78.6406L430.375 72.8438C432.073 71.1042 433.182 69.901 433.703 69.2344C434.224 68.5573 434.599 67.9323 434.828 67.3594C435.057 66.7865 435.172 66.1927 435.172 65.5781C435.172 64.6615 434.917 63.9792 434.406 63.5312C433.906 63.0833 433.234 62.8594 432.391 62.8594C431.505 62.8594 430.646 63.0625 429.812 63.4688C428.979 63.875 428.109 64.4531 427.203 65.2031L424.578 62.0938C425.703 61.1354 426.635 60.4583 427.375 60.0625C428.115 59.6667 428.922 59.3646 429.797 59.1562C430.672 58.9375 431.651 58.8281 432.734 58.8281C434.161 58.8281 435.422 59.0885 436.516 59.6094C437.609 60.1302 438.458 60.8594 439.062 61.7969C439.667 62.7344 439.969 63.8073 439.969 65.0156C439.969 66.0677 439.781 67.0573 439.406 67.9844C439.042 68.901 438.469 69.8438 437.688 70.8125C436.917 71.7812 435.552 73.1615 433.594 74.9531L430.656 77.7188V77.9375H440.609V82Z" fill="#46B98F"/>
<path d="M567.719 64.2656C567.719 65.6927 567.286 66.9062 566.422 67.9062C565.557 68.9062 564.344 69.5938 562.781 69.9688V70.0625C564.625 70.2917 566.021 70.8542 566.969 71.75C567.917 72.6354 568.391 73.8333 568.391 75.3438C568.391 77.5417 567.594 79.2552 566 80.4844C564.406 81.7031 562.13 82.3125 559.172 82.3125C556.693 82.3125 554.495 81.901 552.578 81.0781V76.9688C553.464 77.4167 554.438 77.7812 555.5 78.0625C556.562 78.3438 557.615 78.4844 558.656 78.4844C560.25 78.4844 561.427 78.2135 562.188 77.6719C562.948 77.1302 563.328 76.2604 563.328 75.0625C563.328 73.9896 562.891 73.2292 562.016 72.7812C561.141 72.3333 559.745 72.1094 557.828 72.1094H556.094V68.4062H557.859C559.63 68.4062 560.922 68.1771 561.734 67.7188C562.557 67.25 562.969 66.4531 562.969 65.3281C562.969 63.599 561.885 62.7344 559.719 62.7344C558.969 62.7344 558.203 62.8594 557.422 63.1094C556.651 63.3594 555.792 63.7917 554.844 64.4062L552.609 61.0781C554.693 59.5781 557.177 58.8281 560.062 58.8281C562.427 58.8281 564.292 59.3073 565.656 60.2656C567.031 61.224 567.719 62.5573 567.719 64.2656Z" fill="#46B98F"/>
<rect x="265" y="38" width="341" height="64" rx="32" fill="#5CC09C" fill-opacity="0.1"/>
<rect x="266" y="39" width="339" height="62" rx="31" stroke="#46B98F" stroke-opacity="0.5" stroke-width="2"/>
<rect x="136" y="169" width="64" height="320" rx="32" fill="#E72525" fill-opacity="0.07"/>
<rect x="137" y="170" width="62" height="318" rx="31" stroke="#E72525" stroke-opacity="0.2" stroke-width="2"/>
<line x1="370" y1="138" x2="370" y2="520" stroke="#D2D2D2" stroke-width="2" stroke-linecap="round" stroke-dasharray="3 3"/>
<line x1="498" y1="138" x2="498" y2="520" stroke="#D2D2D2" stroke-width="2" stroke-linecap="round" stroke-dasharray="3 3"/>
<line x1="242" y1="264" x2="624" y2="264" stroke="#D2D2D2" stroke-width="2" stroke-linecap="round" stroke-dasharray="3 3"/>
<line x1="242" y1="392" x2="624" y2="392" stroke="#D2D2D2" stroke-width="2" stroke-linecap="round" stroke-dasharray="3 3"/>
<path fill-rule="evenodd" clip-rule="evenodd" d="M713.689 336.539C713.074 337.154 712.077 337.154 711.461 336.538C710.846 335.923 710.846 334.926 711.461 334.311L717.773 328L711.461 321.689C710.846 321.074 710.846 320.077 711.461 319.461C712.076 318.846 713.074 318.846 713.689 319.461L720 325.772L726.311 319.461C726.926 318.846 727.924 318.846 728.539 319.461C729.154 320.077 729.154 321.074 728.539 321.689L722.227 328L728.539 334.311C729.154 334.926 729.154 335.923 728.539 336.538C727.923 337.154 726.926 337.154 726.311 336.539L720 330.228L713.689 336.539Z" fill="#4C4C4C"/>
<line x1="633.5" y1="69.5" x2="616.5" y2="69.5" stroke="#4C4C4C" stroke-linecap="round"/>
<line x1="654.5" y1="329.5" x2="637.5" y2="329.5" stroke="#4C4C4C" stroke-linecap="round"/>
<line x1="166.5" y1="157.5" x2="166.5" y2="140.5" stroke="#4C4C4C" stroke-linecap="round"/>
<rect x="241" y="137" width="384" height="384" rx="44" fill="#6325E7" fill-opacity="0.05"/>
<rect x="242" y="138" width="382" height="382" rx="43" stroke="#9F7DE5" stroke-opacity="0.5" stroke-width="2"/>
</svg>
